# xmcd CD database file
#
# Track frame offsets:
#	150
#	13081
#	26694
#	38818
#	54322
#	89952
#	105221
#	121297
#	134551
#	151267
#	160777
#	176884
#	202938
#	215415
#	230958
#	249353
#	264915
#	277155
#
# Disc length: 3744 seconds
#
# Revision: 1
# Processed by: cddbd v1.5.1PL0 Copyright (c) Steve Scherf et al.
# Submitted via: CDex 1.51
#
DISCID=fd0e9e12
DTITLE=The Blues Brothers Band - The Blues Brothers Complete - CD 2
DYEAR=1980
DGENRE=Blues
TTITLE0=Shake a tail feather
TTITLE1=The old landmark
TTITLE2=Theme from rawhide
TTITLE3=Minnie the moocher
TTITLE4=Sweet home Chicago
TTITLE5=Jailhouse rock
TTITLE6=Who's making love
TTITLE7=Do you love me
TTITLE8=Guilty
TTITLE9=Perry Mason theme
TTITLE10=Riot in cell block number nine
TTITLE11=Green onions
TTITLE12=I ain't got you
TTITLE13=From the bottom
TTITLE14=Going back to miami
TTITLE15=Expressway to your heart
TTITLE16=Excusez moi mon cherie
TTITLE17=Closing: I can't turn you loose
EXTD=YEAR: 1980
EXTT0=
EXTT1=
EXTT2=
EXTT3=
EXTT4=
EXTT5=
EXTT6=
EXTT7=
EXTT8=
EXTT9=
EXTT10=
EXTT11=
EXTT12=
EXTT13=
EXTT14=
EXTT15=
EXTT16=
EXTT17=
PLAYORDER=
